<?xml version="1.0" encoding="utf-8"?>

<!DOCTYPE svg PUBLIC "-//W3C//DTD SVG 1.1//EN" "http://www.w3.org/Graphics/SVG/1.1/DTD/svg11.dtd">
<!-- Uploaded to: SVG Repo, www.svgrepo.com, Generator: SVG Repo Mixer Tools -->
<svg height="800px" width="800px" version="1.1" id="_x32_" xmlns="http://www.w3.org/2000/svg" xmlns:xlink="http://www.w3.org/1999/xlink" 
	 viewBox="0 0 512 512"  xml:space="preserve">
<style type="text/css">
	.st0{fill:#000000;}
</style>
<g>
	<path class="st0" d="M256,0C114.618,0,0,114.619,0,256c0,141.382,114.618,256,256,256c141.382,0,256-114.618,256-256
		C512,114.619,397.381,0,256,0z M75.463,254.079c-16.018,0-29.004-15.576-29.004-34.788c0-19.213,12.986-34.778,29.004-34.778
		s29.004,15.566,29.004,34.778C104.466,238.503,91.48,254.079,75.463,254.079z M161.971,345.745
		c-17.024,4.325-34.655-7.244-39.392-25.87c-4.726-18.606,5.22-37.213,22.234-41.538c17.024-4.336,34.654,7.253,39.391,25.88
		C188.93,322.823,178.985,341.42,161.971,345.745z M193.256,232.966c-18.113-0.73-32.158-16.87-31.398-36.063
		c0.77-19.202,16.058-34.182,34.151-33.473c18.103,0.729,32.168,16.87,31.408,36.062
		C226.646,218.705,211.348,233.675,193.256,232.966z"/>
</g>
</svg>