<?xml version="1.0" encoding="utf-8"?><!-- Uploaded to: SVG Repo, www.svgrepo.com, Generator: SVG Repo Mixer Tools -->
<svg fill="#000000" width="800px" height="800px" viewBox="0 0 24 24" id="acrobatic-2" data-name="Flat Color" xmlns="http://www.w3.org/2000/svg" class="icon flat-color"><path id="primary" d="M6,11a1,1,0,0,0,.67-.26L8.58,9h4.06l2.85.95a1,1,0,0,0,1-.24l1.9-1.91A1.94,1.94,0,0,0,19,6,2,2,0,0,0,17.7,4.52L11.16,2.06a1,1,0,0,0-.71,1.88L17,6.39,15.53,7.86,13.27,7.1a2.19,2.19,0,0,0-.63-.1H8.58a2,2,0,0,0-1.35.52L5.33,9.26A1,1,0,0,0,6,11Z" style="fill: rgb(0, 0, 0);"></path><path id="secondary" d="M13.22,16.67a1.52,1.52,0,0,0,.42-.06,5.73,5.73,0,0,0,3.89-7l-.18-.66a1.51,1.51,0,0,0-2.9.81l.19.66a2.71,2.71,0,0,1-1.85,3.32,1.5,1.5,0,0,0,.43,2.94Z" style="fill: rgb(44, 169, 188);"></path><path id="primary-2" data-name="primary" d="M11,17a3,3,0,1,1,3-3v6a2,2,0,0,1-2,2H11a1,1,0,0,1,0-2h1V16.82A3,3,0,0,1,11,17Z" style="fill: rgb(0, 0, 0);"></path></svg>