<?xml version="1.0" standalone="no"?>
<!DOCTYPE svg PUBLIC "-//W3C//DTD SVG 20010904//EN"
 "http://www.w3.org/TR/2001/REC-SVG-20010904/DTD/svg10.dtd">
<svg version="1.0" xmlns="http://www.w3.org/2000/svg"
 width="64.000000pt" height="64.000000pt" viewBox="0 0 64.000000 64.000000"
 preserveAspectRatio="xMidYMid meet">

<g transform="translate(0.000000,64.000000) scale(0.100000,-0.100000)"
fill="#FFFFFF" stroke="none">
<path d="M349 417 l-94 -104 -26 18 c-24 17 -27 17 -42 2 -16 -16 -15 -19 5
-40 17 -18 19 -25 9 -37 -11 -13 -24 -8 -90 39 -74 52 -79 54 -94 37 -15 -17
-11 -24 76 -110 51 -51 95 -92 99 -92 3 0 69 81 146 179 134 171 140 180 123
196 -18 15 -24 10 -112 -88z"/>
<path d="M481 377 c-66 -74 -128 -134 -136 -133 -9 0 -23 -11 -33 -26 -16 -27
-16 -28 13 -58 16 -16 32 -30 36 -30 4 0 54 60 110 133 57 72 118 150 136 173
32 40 32 41 14 58 -18 16 -24 11 -140 -117z"/>
</g>
</svg>
